<svg height="512" viewBox="0 0 192 192" width="512" xmlns="http://www.w3.org/2000/svg"><circle cx="96" cy="24" r="24"/><path d="m128 72a24.028 24.028 0 0 0 -24-24h-16a24.027 24.027 0 0 0 -24 24v16a8 8 0 0 0 8 8h48a8 8 0 0 0 8-8z"/><circle cx="160" cy="120" r="24"/><path d="m168 144h-16a24.028 24.028 0 0 0 -24 24v16a8 8 0 0 0 8 8h48a8 8 0 0 0 8-8v-16a24.028 24.028 0 0 0 -24-24z"/><circle cx="32" cy="120" r="24"/><path d="m40 144h-16a24.027 24.027 0 0 0 -24 24v16a8 8 0 0 0 8 8h48a8 8 0 0 0 8-8v-16a24.027 24.027 0 0 0 -24-24z"/><path d="m104 104h-16v27.719l-20.438 13.625 8.875 13.312 19.563-13.041 19.562 13.041 8.875-13.312-20.437-13.625z"/></svg>